<?xml version="1.0" encoding="UTF-8"?>
<svg width="512" height="512" viewBox="0 0 512 512" xmlns="http://www.w3.org/2000/svg">
  <defs>
    <!-- 现代渐变背景 -->
    <linearGradient id="mainGradient" x1="0%" y1="0%" x2="100%" y2="100%">
      <stop offset="0%" style="stop-color:#667eea;stop-opacity:1" />
      <stop offset="100%" style="stop-color:#764ba2;stop-opacity:1" />
    </linearGradient>
    
    <!-- 金色渐变 -->
    <linearGradient id="goldGradient" x1="0%" y1="0%" x2="100%" y2="100%">
      <stop offset="0%" style="stop-color:#ffd89b;stop-opacity:1" />
      <stop offset="100%" style="stop-color:#19547b;stop-opacity:1" />
    </linearGradient>
    
    <!-- 银色渐变 -->
    <linearGradient id="silverGradient" x1="0%" y1="0%" x2="100%" y2="100%">
      <stop offset="0%" style="stop-color:#e3e3e3;stop-opacity:1" />
      <stop offset="100%" style="stop-color:#8e9eab;stop-opacity:1" />
    </linearGradient>
    
    <!-- 铜色渐变 -->
    <linearGradient id="bronzeGradient" x1="0%" y1="0%" x2="100%" y2="100%">
      <stop offset="0%" style="stop-color:#f7971e;stop-opacity:1" />
      <stop offset="100%" style="stop-color:#ffd200;stop-opacity:1" />
    </linearGradient>
    
    <!-- 阴影滤镜 -->
    <filter id="shadow" x="-50%" y="-50%" width="200%" height="200%">
      <feDropShadow dx="2" dy="4" stdDeviation="8" flood-color="rgba(0,0,0,0.25)"/>
    </filter>
    
    <!-- 光晕效果 -->
    <filter id="glow" x="-50%" y="-50%" width="200%" height="200%">
      <feGaussianBlur stdDeviation="3" result="coloredBlur"/>
      <feMerge> 
        <feMergeNode in="coloredBlur"/>
        <feMergeNode in="SourceGraphic"/>
      </feMerge>
    </filter>
  </defs>
  
  <!-- 背景圆形 -->
  <circle cx="256" cy="256" r="240" fill="url(#mainGradient)" filter="url(#shadow)"/>
  
  <!-- 内圈装饰 -->
  <circle cx="256" cy="256" r="200" fill="none" stroke="rgba(255,255,255,0.15)" stroke-width="2"/>
  
  <!-- 主要图标组 - 简洁的排行榜 -->
  <g transform="translate(256,256)">
    
    <!-- 简洁的柱状图表示排行榜 -->
    <g transform="translate(0,0)">
      
      <!-- 第三名柱子 (左侧) -->
      <rect x="-120" y="40" width="60" height="80" rx="12" 
            fill="url(#bronzeGradient)" 
            filter="url(#shadow)"/>
      
      <!-- 第二名柱子 (左中) -->
      <rect x="-40" y="10" width="60" height="110" rx="12" 
            fill="url(#silverGradient)" 
            filter="url(#shadow)"/>
      
      <!-- 第一名柱子 (右中) -->
      <rect x="40" y="-30" width="60" height="150" rx="12" 
            fill="url(#goldGradient)" 
            filter="url(#shadow)"/>
      
      <!-- 皇冠装饰在第一名上方 -->
      <g transform="translate(70,-50)">
        <polygon points="0,-20 -12,-8 -6,0 0,-4 6,0 12,-8" 
                 fill="#ffd89b" filter="url(#glow)"/>
        <circle cx="-8" cy="-12" r="3" fill="#fff" opacity="0.8"/>
        <circle cx="0" cy="-16" r="4" fill="#fff" opacity="0.9"/>
        <circle cx="8" cy="-12" r="3" fill="#fff" opacity="0.8"/>
      </g>
    </g>
    
    <!-- 底部基线 -->
    <rect x="-140" y="120" width="280" height="8" rx="4" 
          fill="rgba(255,255,255,0.3)"/>
    
    <!-- 数据点装饰 -->
    <g transform="translate(0,-120)" opacity="0.6">
      <circle cx="-90" cy="0" r="6" fill="white"/>
      <circle cx="-10" cy="-15" r="6" fill="white"/>
      <circle cx="70" cy="-30" r="6" fill="white"/>
      
      <!-- 连接线 -->
      <path d="M-90,0 Q-10,-25 70,-30" 
            stroke="rgba(255,255,255,0.4)" 
            stroke-width="3" 
            fill="none" 
            stroke-linecap="round"/>
    </g>
    
    <!-- 简洁的装饰元素 -->
    <g transform="translate(-160,-160)" opacity="0.2">
      <rect x="0" y="20" width="4" height="15" rx="2" fill="white"/>
      <rect x="8" y="12" width="4" height="23" rx="2" fill="white"/>
      <rect x="16" y="8" width="4" height="27" rx="2" fill="white"/>
    </g>
    
    <g transform="translate(140,-150)" opacity="0.3">
      <path d="M0,15 L12,3 M12,3 L8,3 M12,3 L12,7" 
            stroke="white" stroke-width="2.5" 
            stroke-linecap="round" stroke-linejoin="round"/>
    </g>
  </g>
  
</svg>
